<svg width="72" height="72" viewBox="0 0 72 72" fill="none" xmlns="http://www.w3.org/2000/svg">
<g id="cowo">
<g clip-path="url(#clip0_68_6850)">
<rect width="72" height="72" rx="36" transform="matrix(-1 0 0 1 72 0)" fill="#B5D3DD"/>
<g id="Group 1000006415">
<g id="Group 1000006396">
<g id="Group 1000006384">
<g id="Group 1000006381">
<g id="Group 6">
<path id="Ellipse 1269" d="M56.1095 24.5738C56.9268 23.8449 57.6078 22.9791 58.1134 22.026C58.6191 21.0729 58.9396 20.0511 59.0567 19.0189C59.1737 17.9867 59.085 16.9643 58.7956 16.0102C58.5062 15.056 58.0218 14.1888 57.37 13.4579C56.7182 12.7271 55.9118 12.147 54.9969 11.7507C54.0819 11.3545 53.0763 11.1498 52.0375 11.1485C50.9987 11.1471 49.947 11.3491 48.9425 11.7428C47.9379 12.1366 47.0002 12.7144 46.1829 13.4434L51.1462 19.0086L56.1095 24.5738Z" fill="#2F363E"/>
<path id="Ellipse 1270" d="M27.0321 13.4188C26.2119 12.6931 25.2719 12.119 24.2658 11.7292C23.2598 11.3394 22.2073 11.1415 21.1685 11.147C20.1297 11.1524 19.1249 11.361 18.2115 11.7609C17.2981 12.1607 16.494 12.744 15.8451 13.4774C15.1962 14.2108 14.7152 15.0799 14.4295 16.0352C14.1439 16.9905 14.0592 18.0132 14.1803 19.0449C14.3014 20.0767 14.6259 21.0972 15.1354 22.0483C15.6448 22.9995 16.3291 23.8625 17.1493 24.5882L22.0907 19.0035L27.0321 13.4188Z" fill="#2F363E"/>
</g>
</g>
</g>
</g>
</g>
<g id="Vector 9705">
<path d="M37.923 54.8567C43.8803 47.5241 49.2449 49.0008 49.9525 50.7831C50.2066 51.423 50.4163 52.0504 50.5863 52.6638C52.2565 58.6876 50.1045 63.3463 48.6795 65.0408C41.5506 65.4482 38.1135 63.1313 37.4796 61.0945C39.2447 59.9466 39.7904 56.8988 38.3144 55.2279C38.1969 55.0949 38.0666 54.9706 37.923 54.8567Z" fill="#91A9FF"/>
<path d="M34.6763 61.0184C33.6579 64.5316 26.9109 65.5076 23.7284 65.0408C21.4072 60.0357 20.4551 55.8439 21.0654 53.0551C21.3119 51.9285 21.8134 51.0309 22.5827 50.4011C25.0014 47.7278 32.0957 51.3771 34.0516 54.8567C33.9006 55.0018 33.7602 55.1625 33.632 55.3357C32.383 57.0225 32.2866 59.8903 34.6763 61.0184Z" fill="#91A9FF"/>
<path d="M35.4401 54.0929C36.5122 54.0929 37.3303 54.3863 37.923 54.8567C38.0666 54.9706 38.1969 55.0949 38.3144 55.2279C39.7904 56.8988 39.2447 59.9466 37.4796 61.0945C37.2093 61.2703 36.9104 61.4015 36.5858 61.4764C35.8244 61.4245 35.1924 61.262 34.6763 61.0184C32.2866 59.8903 32.383 57.0225 33.632 55.3357C33.7602 55.1625 33.9006 55.0018 34.0516 54.8567C34.4491 54.4749 34.9207 54.2011 35.4401 54.0929Z" fill="#6376E0"/>
<path d="M9.3433 33.8519C13.9262 11.7015 49.0614 -10.8309 63.8284 38.1802C63.8284 44.8707 58.2183 49.8378 50.5863 52.6638C50.4163 52.0504 50.2066 51.423 49.9525 50.7831C49.2449 49.0008 43.8803 47.5241 37.923 54.8567C37.3303 54.3863 36.5122 54.0929 35.4401 54.0929C34.9207 54.2011 34.4491 54.4749 34.0516 54.8567C32.0957 51.3771 25.0014 47.7278 22.5827 50.4011C21.8134 51.0309 21.3119 51.9285 21.0654 53.0551C15.2756 50.8711 10.8295 47.0823 9.43444 41.49C8.87319 39.2402 8.80576 36.6985 9.3433 33.8519Z" fill="#D9DCE5"/>
<path d="M36.5858 61.4764C36.9104 61.4015 37.2093 61.2703 37.4796 61.0945C38.1135 63.1313 41.5506 65.4482 48.6795 65.0408C50.1045 63.3463 52.2565 58.6876 50.5863 52.6638C58.2183 49.8378 63.8284 44.8707 63.8284 38.1802C64.7196 39.9624 69.9399 44.1634 68.4112 52.6638C57.5911 79.044 13.4174 78.9167 3.61473 52.1834C4.08151 49.51 5.89893 43.6287 9.43444 41.49C10.8295 47.0823 15.2756 50.8711 21.0654 53.0551C20.4551 55.8439 21.4072 60.0357 23.7284 65.0408C26.9109 65.5076 33.6579 64.5316 34.6763 61.0184C35.1924 61.262 35.8244 61.4245 36.5858 61.4764Z" fill="#2F363E"/>
</g>
<path id="Vector 9703" d="M40.4745 34.2319C37.0961 32.0196 38.6159 21.2894 45.6846 23.665C48.3817 24.4992 52.6612 28.8775 50.038 33.5469C46.759 39.3838 43.7178 37.2533 43.2393 36.4241C42.7915 35.6482 41.3882 34.8302 40.4745 34.2319Z" fill="#2F363E"/>
<path id="Vector 9704" d="M33.4361 34.3598C36.3478 31.5616 32.8724 21.2966 26.3641 24.9369C23.8674 26.2549 20.4701 31.3481 23.9106 35.4529C28.2112 40.5837 30.8066 37.9282 31.1238 37.0249C31.4206 36.1796 32.6486 35.1165 33.4361 34.3598Z" fill="#2F363E"/>
<path id="Ellipse 1279" d="M30.2004 42.2184C29.466 47.3372 33.4122 48.8196 37.9681 46.9303C42.1856 48.1781 45.0716 45.7227 44.2569 40.9091C43.2483 38.1585 39.9627 35.9925 36.9642 36.153C33.9272 36.1325 30.6018 38.6711 30.2004 42.2184Z" fill="#CACEDA" fill-opacity="0.54"/>
<g id="Ellipse 1280" filter="url(#filter0_d_68_6850)">
<ellipse cx="1.68881" cy="2.36433" rx="1.68881" ry="2.36433" transform="matrix(-0.910097 0.414396 0.414396 0.910097 44.0162 27.1737)" fill="#D9DCE5"/>
</g>
<g id="Ellipse 1281" filter="url(#filter1_d_68_6850)">
<ellipse cx="29.6789" cy="31.2193" rx="1.62432" ry="2.27405" transform="rotate(13.8385 29.6789 31.2193)" fill="#D9DCE5"/>
</g>
<ellipse id="Ellipse 1282" cx="2.53069" cy="1.89801" rx="2.53069" ry="1.89801" transform="matrix(-0.99569 0.0927421 0.0927421 0.99569 39.3916 38.4411)" fill="#2F363E"/>
<path id="Vector 9705_2" d="M41.2279 42.9785C37.8599 45.5793 36.8199 44.1038 37.185 42.6403C37.8141 44.0112 35.0163 46.273 32.7111 43.0571" stroke="#2F363E" stroke-width="0.943038" stroke-linecap="round"/>
</g>
</g>
<defs>
<filter id="filter0_d_68_6850" x="40.4628" y="26.5887" width="5.99249" height="6.87327" filterUnits="userSpaceOnUse" color-interpolation-filters="sRGB">
<feFlood flood-opacity="0" result="BackgroundImageFix"/>
<feColorMatrix in="SourceAlpha" type="matrix" values="0 0 0 0 0 0 0 0 0 0 0 0 0 0 0 0 0 0 127 0" result="hardAlpha"/>
<feOffset/>
<feGaussianBlur stdDeviation="0.586653"/>
<feComposite in2="hardAlpha" operator="out"/>
<feColorMatrix type="matrix" values="0 0 0 0 0.85098 0 0 0 0 0.862745 0 0 0 0 0.898039 0 0 0 1 0"/>
<feBlend mode="normal" in2="BackgroundImageFix" result="effect1_dropShadow_68_6850"/>
<feBlend mode="normal" in="SourceGraphic" in2="effect1_dropShadow_68_6850" result="shape"/>
</filter>
<filter id="filter1_d_68_6850" x="26.8816" y="27.8485" width="5.59453" height="6.74168" filterUnits="userSpaceOnUse" color-interpolation-filters="sRGB">
<feFlood flood-opacity="0" result="BackgroundImageFix"/>
<feColorMatrix in="SourceAlpha" type="matrix" values="0 0 0 0 0 0 0 0 0 0 0 0 0 0 0 0 0 0 127 0" result="hardAlpha"/>
<feOffset/>
<feGaussianBlur stdDeviation="0.564252"/>
<feComposite in2="hardAlpha" operator="out"/>
<feColorMatrix type="matrix" values="0 0 0 0 0.85098 0 0 0 0 0.862745 0 0 0 0 0.898039 0 0 0 1 0"/>
<feBlend mode="normal" in2="BackgroundImageFix" result="effect1_dropShadow_68_6850"/>
<feBlend mode="normal" in="SourceGraphic" in2="effect1_dropShadow_68_6850" result="shape"/>
</filter>
<clipPath id="clip0_68_6850">
<rect width="72" height="72" rx="36" transform="matrix(-1 0 0 1 72 0)" fill="white"/>
</clipPath>
</defs>
</svg>
