<svg width="80" height="80" viewBox="0 0 80 80" fill="none" xmlns="http://www.w3.org/2000/svg">
<g id="IdentificationCard">
<path id="Vector" d="M61.25 35.0002C61.25 35.3317 61.1183 35.6496 60.8839 35.8841C60.6495 36.1185 60.3315 36.2502 60 36.2502H47.5C47.1685 36.2502 46.8505 36.1185 46.6161 35.8841C46.3817 35.6496 46.25 35.3317 46.25 35.0002C46.25 34.6687 46.3817 34.3507 46.6161 34.1163C46.8505 33.8819 47.1685 33.7502 47.5 33.7502H60C60.3315 33.7502 60.6495 33.8819 60.8839 34.1163C61.1183 34.3507 61.25 34.6687 61.25 35.0002ZM60 43.7502H47.5C47.1685 43.7502 46.8505 43.8819 46.6161 44.1163C46.3817 44.3507 46.25 44.6687 46.25 45.0002C46.25 45.3317 46.3817 45.6496 46.6161 45.8841C46.8505 46.1185 47.1685 46.2502 47.5 46.2502H60C60.3315 46.2502 60.6495 46.1185 60.8839 45.8841C61.1183 45.6496 61.25 45.3317 61.25 45.0002C61.25 44.6687 61.1183 44.3507 60.8839 44.1163C60.6495 43.8819 60.3315 43.7502 60 43.7502ZM71.25 17.5002V62.5002C71.25 63.4947 70.8549 64.4486 70.1517 65.1518C69.4484 65.8551 68.4946 66.2502 67.5 66.2502H12.5C11.5054 66.2502 10.5516 65.8551 9.84836 65.1518C9.1451 64.4486 8.75001 63.4947 8.75001 62.5002L8.75001 17.5002C8.75001 16.5056 9.1451 15.5518 9.84836 14.8485C10.5516 14.1453 11.5054 13.7502 12.5 13.7502L67.5 13.7502C68.4946 13.7502 69.4484 14.1453 70.1517 14.8485C70.8549 15.5518 71.25 16.5056 71.25 17.5002ZM68.75 17.5002C68.75 17.1687 68.6183 16.8507 68.3839 16.6163C68.1495 16.3819 67.8315 16.2502 67.5 16.2502H12.5C12.1685 16.2502 11.8505 16.3819 11.6161 16.6163C11.3817 16.8507 11.25 17.1687 11.25 17.5002L11.25 62.5002C11.25 62.8317 11.3817 63.1496 11.6161 63.3841C11.8505 63.6185 12.1685 63.7502 12.5 63.7502H67.5C67.8315 63.7502 68.1495 63.6185 68.3839 63.3841C68.6183 63.1496 68.75 62.8317 68.75 62.5002V17.5002ZM41.2094 52.1877C41.2576 52.3488 41.2728 52.5179 41.2542 52.685C41.2355 52.8521 41.1833 53.0138 41.1007 53.1602C41.0181 53.3067 40.9068 53.435 40.7734 53.5374C40.6401 53.6399 40.4874 53.7143 40.3246 53.7564C40.1618 53.7985 39.9922 53.8073 39.8259 53.7823C39.6596 53.7572 39.5001 53.6989 39.3569 53.6108C39.2137 53.5227 39.0897 53.4066 38.9924 53.2695C38.8951 53.1323 38.8265 52.977 38.7906 52.8127C37.8313 49.0627 34.0625 46.2502 30 46.2502C25.9375 46.2502 22.1875 49.0627 21.2094 52.8127C21.1401 53.0808 20.9838 53.3184 20.7649 53.4881C20.546 53.6578 20.277 53.75 20 53.7502C19.8945 53.7503 19.7895 53.7367 19.6875 53.7096C19.3669 53.6265 19.0924 53.4195 18.9242 53.1342C18.756 52.8488 18.708 52.5084 18.7906 52.1877C19.2364 50.5573 20.041 49.0472 21.1457 47.7679C22.2503 46.4886 23.627 45.4725 25.175 44.7939C23.6059 43.7567 22.4128 42.2416 21.7726 40.473C21.1323 38.7044 21.079 36.7766 21.6205 34.9753C22.162 33.1741 23.2695 31.5952 24.7789 30.4729C26.2883 29.3506 28.1191 28.7445 30 28.7445C31.8809 28.7445 33.7118 29.3506 35.2211 30.4729C36.7305 31.5952 37.838 33.1741 38.3795 34.9753C38.921 36.7766 38.8677 38.7044 38.2275 40.473C37.5872 42.2416 36.3941 43.7567 34.825 44.7939C36.374 45.471 37.7516 46.4866 38.8564 47.7662C39.9613 49.0457 40.7653 50.5565 41.2094 52.1877ZM30 43.7502C31.2361 43.7502 32.4445 43.3836 33.4723 42.6969C34.5001 42.0101 35.3012 41.034 35.7743 39.892C36.2473 38.7499 36.3711 37.4932 36.1299 36.2809C35.8888 35.0685 35.2935 33.9548 34.4194 33.0808C33.5453 32.2067 32.4317 31.6114 31.2193 31.3703C30.0069 31.1291 28.7503 31.2529 27.6082 31.7259C26.4662 32.199 25.4901 33.0001 24.8033 34.0279C24.1166 35.0557 23.75 36.264 23.75 37.5002C23.75 39.1578 24.4085 40.7475 25.5806 41.9196C26.7527 43.0917 28.3424 43.7502 30 43.7502Z" fill="#2D3191"/>
</g>
</svg>
